<svg width="658" height="576" viewBox="0 0 658 576" fill="none" xmlns="http://www.w3.org/2000/svg">
<path d="M655.73 353.08C641.874 327.492 622.237 305.491 598.38 288.83C596.675 287.653 594.708 286.911 592.65 286.67C595.46 268.19 594.87 247.77 584.44 232.37C559.69 195.83 433.59 233.54 433.59 233.54C345.2 202.9 268.59 241.79 268.59 241.79C268.59 241.79 170.77 226.47 125.99 238.26C104.87 243.82 99.74 265.36 100.22 286.58H100.15C98.2775 286.577 96.4284 286.996 94.7403 287.806C93.0522 288.616 91.5686 289.797 90.4 291.26C78.49 306.14 42.51 351.97 43.49 360.82C44.67 371.43 83.56 509.31 81.8 575.9L625.09 569.9C625.09 569.9 634.09 435.9 656.6 362.55C657.576 359.403 657.263 355.997 655.73 353.08Z" fill="#3F3D56"/>
<path opacity="0.1" d="M88.88 361.42L111.27 316.63L130.12 403.84L130.34 444.32L88.88 361.42Z" fill="black"/>
<path opacity="0.1" d="M602.7 361.42L580.31 316.63L554.34 399.32L559.34 446.32L602.7 361.42Z" fill="black"/>
<path d="M128.48 401.46L554.38 399.13L559.1 446.27L130.12 445.09L128.48 401.46Z" fill="#3F3D56"/>
<path opacity="0.1" d="M128.48 401.46L554.38 399.13L559.1 446.27L130.12 445.09L128.48 401.46Z" fill="black"/>
<path d="M472.73 272.14C472.73 272.14 471.29 270.14 469.59 271.22C468.78 271.75 464.97 276.55 461.23 281.43C459.39 283.82 457.56 286.23 456.11 288.15C454.32 290.51 453.11 292.15 453.11 292.15L452.39 293.5L448.02 301.67L443.91 309.35L442.91 312.97L456.79 317.69L472.59 313.38L471.91 310.45L471.79 309.95L471.92 303.21L472.28 284.21L472.45 275.66V274.66L472.73 272.14Z" fill="#FFE09C"/>
<path d="M440.95 318.98C440.95 318.98 455.95 324.33 463.64 321.53C463.64 321.53 470.29 319.41 472.91 317.36C472.91 317.36 475.7 315.9 471.91 311.14C471.91 311.14 462.2 317.09 453.01 314.75L443.82 312.4L440.95 318.98Z" fill="#E7C4C3"/>
<path d="M457.681 312.211C460.021 310.84 460.976 308.122 459.814 306.139C458.653 304.157 455.814 303.662 453.475 305.033C451.135 306.404 450.18 309.122 451.342 311.104C452.503 313.086 455.342 313.582 457.681 312.211Z" fill="#FF7F8E"/>
<path d="M467.656 300.251C469.996 298.88 470.951 296.162 469.789 294.18C468.628 292.198 465.79 291.702 463.45 293.073C461.11 294.444 460.155 297.162 461.317 299.145C462.478 301.127 465.317 301.622 467.656 300.251Z" fill="#FF7F8E"/>
<path d="M471.91 303.21C471.157 302.896 470.339 302.765 469.525 302.829C468.711 302.894 467.925 303.151 467.23 303.58C464.89 304.95 463.93 307.67 465.1 309.65C466.27 311.63 469.1 312.13 471.43 310.76C471.59 310.66 471.75 310.56 471.9 310.45L471.78 309.95L471.91 303.21Z" fill="#FF7F8E"/>
<path d="M454.94 295.28C454.662 294.82 454.29 294.424 453.849 294.118C453.408 293.811 452.908 293.601 452.38 293.5L448.01 301.67C448.775 302.015 449.613 302.166 450.45 302.11C451.287 302.054 452.098 301.793 452.81 301.35C455.15 299.98 456.1 297.26 454.94 295.28Z" fill="#FF7F8E"/>
<path d="M464.66 283.31C464.299 282.732 463.796 282.256 463.199 281.927C462.602 281.598 461.931 281.427 461.25 281.43C459.41 283.82 457.58 286.23 456.13 288.15L456.19 288.27C457.35 290.27 460.19 290.74 462.53 289.37C464.87 288 465.8 285.29 464.66 283.31Z" fill="#FF7F8E"/>
<path d="M472.44 275.65C471.924 275.779 471.429 275.981 470.97 276.25C468.63 277.62 467.68 280.34 468.84 282.32C469.203 282.901 469.709 283.379 470.31 283.708C470.91 284.037 471.585 284.207 472.27 284.2L472.44 275.65Z" fill="#FF7F8E"/>
<path d="M449.15 308.44L448.35 307.09C449.548 306.732 450.653 306.118 451.59 305.29C451.65 305.23 451.7 305.16 451.75 305.1C452.75 303.84 452.54 306.46 452.54 306.46C452.54 306.46 450.08 308.55 449.15 308.44Z" fill="#94CC79"/>
<path d="M460.95 306.35L460.15 304.99C461.347 304.63 462.452 304.016 463.39 303.19C463.39 303.13 463.5 303.07 463.55 303C464.55 301.75 464.34 304.36 464.34 304.36C464.34 304.36 461.88 306.46 460.95 306.35Z" fill="#94CC79"/>
<path d="M459.87 300.75L459.07 299.39C460.266 299.033 461.371 298.423 462.31 297.6C462.36 297.53 462.42 297.47 462.47 297.41C463.47 296.15 463.26 298.76 463.26 298.76C463.26 298.76 460.8 300.84 459.87 300.75Z" fill="#94CC79"/>
<path d="M461.3 290.65L460.5 289.29C461.697 288.93 462.802 288.316 463.74 287.49C463.74 287.43 463.85 287.37 463.9 287.3C464.9 286.04 464.69 288.66 464.69 288.66C464.69 288.66 462.23 290.75 461.3 290.65Z" fill="#94CC79"/>
<path d="M468.07 278.43L467.28 277.07C468.474 276.711 469.577 276.097 470.51 275.27C470.569 275.211 470.622 275.148 470.67 275.08C471.67 273.83 471.47 276.44 471.47 276.44C471.47 276.44 469 278.53 468.07 278.43Z" fill="#94CC79"/>
<path d="M467.31 290.9L466.51 289.54C467.707 289.186 468.813 288.575 469.75 287.75C469.75 287.68 469.86 287.62 469.91 287.56C470.91 286.3 470.7 288.91 470.7 288.91C470.7 288.91 468.24 291.01 467.31 290.9Z" fill="#94CC79"/>
<path d="M438.49 314.75C438.49 314.75 436.57 319.75 440.95 318.95C442.899 316.69 444.232 313.966 444.82 311.04C444.82 311.04 454.29 290.29 457.09 288.39C457.09 288.39 469.43 271.52 470.76 271.27C470.76 271.27 471.19 269.63 466.88 273.1C462.57 276.57 453.13 289.93 453.13 289.93L444.13 304.6L442.01 310.45L438.49 314.75Z" fill="#E7C4C3"/>
<path opacity="0.2" d="M438.49 314.75C438.49 314.75 436.57 319.75 440.95 318.95C442.899 316.69 444.232 313.966 444.82 311.04C444.82 311.04 454.29 290.29 457.09 288.39C457.09 288.39 469.43 271.52 470.76 271.27C470.76 271.27 471.19 269.63 466.88 273.1C462.57 276.57 453.13 289.93 453.13 289.93L444.13 304.6L442.01 310.45L438.49 314.75Z" fill="white"/>
<path d="M289.74 416.32C291.39 421.743 293.422 427.043 295.82 432.18C302.706 430.74 309.48 428.808 316.09 426.4C316.3 426.33 312.3 421.1 311.88 420.67C310.251 418.87 308.31 417.379 306.15 416.27C304.04 415.35 301.44 416.05 299.15 416.17C296.03 416.33 292.893 416.38 289.74 416.32Z" fill="#FBBEBE"/>
<path d="M306.19 424.53C302.75 423.45 300.65 419.98 299.25 416.64C297.85 413.3 296.72 409.64 294.06 407.2C293.555 407.277 293.077 407.478 292.668 407.785C292.26 408.092 291.934 408.496 291.72 408.96C291.305 409.897 290.841 410.812 290.33 411.7C289.23 413.3 287.33 414.08 285.88 415.44C284.43 416.8 283.62 418.87 282.11 420.24C280.21 421.96 277.53 422.39 275.04 422.96C271.183 423.836 267.458 425.214 263.96 427.06C262.673 427.837 261.296 428.455 259.86 428.9C258.279 429.208 256.658 429.262 255.06 429.06L244.06 428.28C243.08 428.154 242.086 428.195 241.12 428.4C240.008 428.806 239.061 429.568 238.428 430.569C237.795 431.569 237.511 432.751 237.62 433.93C237.761 435.105 238.143 436.238 238.742 437.258C239.34 438.278 240.143 439.164 241.1 439.86C243.022 441.226 245.139 442.295 247.38 443.03C256.976 446.658 266.856 449.481 276.92 451.47V453.65C283.916 457.098 291.611 458.891 299.41 458.89C299.985 458.931 300.562 458.831 301.09 458.6C301.812 458.078 302.317 457.309 302.51 456.44C305.158 448.695 306.703 440.616 307.1 432.44C307.296 430.372 307.137 428.285 306.63 426.27C306.03 424.27 308.09 425.12 306.18 424.34" fill="#2F2E41"/>
<path d="M517.51 382.99C484.84 384.99 452.51 375.38 419.85 374.36C415.783 374.103 411.7 374.365 407.7 375.14C403.5 376.08 399.58 377.98 395.7 379.8C378.15 387.96 360.01 394.72 341.88 401.47L321.06 409.23C316.9 410.78 312.59 412.35 308.16 412.08C306.16 411.96 303.73 411.66 302.62 413.31C299.23 418.31 300.83 425.7 303.07 431.31C303.79 433.13 305.07 435.11 306.97 435.31C308.34 435.45 309.62 434.66 310.97 434.31C314.76 433.31 318.54 435.85 322.44 436.26C327.26 436.77 331.73 434.03 336.28 432.35C343.82 429.56 352.07 429.65 360 428.35C373.3 426.13 385.62 419.96 397.14 412.93C401.52 410.25 405.96 407.38 411 406.4C416.79 405.27 422.74 406.76 428.43 408.4C441.973 412.23 455.304 416.769 468.37 422C475.25 424.76 482.09 427.71 489.25 429.62C504.738 433.692 521.12 432.736 536.03 426.89C541.25 424.82 546.94 421.17 547.24 415.53C547.41 412.31 544.91 409.53 543.24 406.73C542.18 404.96 541.11 403.2 539.94 401.5C534.27 393.24 527.43 382.4 517.51 382.99Z" fill="#2F2E41"/>
<path opacity="0.1" d="M517.51 382.99C484.84 384.99 452.51 375.38 419.85 374.36C415.783 374.103 411.7 374.365 407.7 375.14C403.5 376.08 399.58 377.98 395.7 379.8C378.15 387.96 360.01 394.72 341.88 401.47L321.06 409.23C316.9 410.78 312.59 412.35 308.16 412.08C306.16 411.96 303.73 411.66 302.62 413.31C299.23 418.31 300.83 425.7 303.07 431.31C303.79 433.13 305.07 435.11 306.97 435.31C308.34 435.45 309.62 434.66 310.97 434.31C314.76 433.31 318.54 435.85 322.44 436.26C327.26 436.77 331.73 434.03 336.28 432.35C343.82 429.56 352.07 429.65 360 428.35C373.3 426.13 385.62 419.96 397.14 412.93C401.52 410.25 405.96 407.38 411 406.4C416.79 405.27 422.74 406.76 428.43 408.4C441.973 412.23 455.304 416.769 468.37 422C475.25 424.76 482.09 427.71 489.25 429.62C504.738 433.692 521.12 432.736 536.03 426.89C541.25 424.82 546.94 421.17 547.24 415.53C547.41 412.31 544.91 409.53 543.24 406.73C542.18 404.96 541.11 403.2 539.94 401.5C534.27 393.24 527.43 382.4 517.51 382.99Z" fill="black"/>
<path d="M352.46 417.91C357.567 419.65 362.727 421.253 367.94 422.72C370.85 417.94 376.3 414.61 377.54 409.15C377.592 409.029 377.618 408.899 377.616 408.767C377.614 408.636 377.584 408.506 377.528 408.387C377.472 408.268 377.392 408.162 377.292 408.077C377.193 407.991 377.076 407.927 376.95 407.89C373.225 405.827 369.089 404.615 364.84 404.34C361.48 404.13 359.95 407.63 358.42 410.1C357.81 411.09 353.83 418.38 352.46 417.91Z" fill="#FBBEBE"/>
<path d="M359.66 414.42C358.133 414.162 356.676 413.589 355.382 412.739C354.087 411.889 352.983 410.779 352.14 409.48C351.42 408.22 350.65 406.48 349.21 406.61C347.77 406.74 347.21 408.3 346.95 409.61C345.98 414.569 344.571 419.431 342.74 424.14C340.901 428.859 337.785 432.973 333.74 436.02C331.84 437.33 329.74 438.32 327.88 439.7C326.21 440.93 324.76 442.49 322.88 443.44C321.651 444.009 320.381 444.484 319.08 444.86C317.172 445.533 315.347 446.422 313.64 447.51C312.141 448.377 310.872 449.591 309.94 451.05C309.469 451.789 309.193 452.635 309.139 453.51C309.085 454.385 309.254 455.259 309.63 456.05C310.025 456.696 310.553 457.252 311.179 457.679C311.805 458.107 312.514 458.397 313.26 458.53C314.749 458.79 316.269 458.831 317.77 458.65C323.72 458.21 329.67 457.65 335.62 457.15C338.134 456.998 340.634 456.663 343.1 456.15C344.41 455.83 345.68 455.42 346.98 455.08C349.205 454.508 351.484 454.173 353.78 454.08C354.452 454.027 355.128 454.088 355.78 454.26C357.16 454.71 358.13 456.08 359.56 456.36C360.472 456.447 361.393 456.324 362.25 456C366.53 454.83 371.04 454.86 375.47 454.62C377.47 454.52 379.71 454.15 380.61 452.4C381.73 450.22 379.87 447.78 379.14 445.4C378.767 443.904 378.559 442.371 378.52 440.83C378.183 437.027 377.067 433.333 375.24 429.98C373.73 427.2 371.66 424.12 372.72 421.13C373.08 420.13 373.8 419.13 373.72 418.13C373.38 413.34 362.37 414.99 359.66 414.42Z" fill="#2F2E41"/>
<path d="M468.52 330.58C462.737 328.025 458.106 323.419 455.52 317.65C454.97 316.41 454.52 315.12 454 313.87C452.285 309.709 449.621 306.007 446.22 303.06C445.854 302.661 445.407 302.345 444.908 302.134C444.409 301.924 443.871 301.823 443.33 301.84C442.807 301.999 442.335 302.294 441.963 302.695C441.591 303.095 441.331 303.587 441.21 304.12C440.911 305.258 440.836 306.443 440.99 307.61C441.282 310.358 441.757 313.084 442.41 315.77L443.99 322.98C444.185 324.092 444.521 325.174 444.99 326.2C445.668 327.415 446.567 328.494 447.64 329.38C449.09 330.72 450.56 332.01 452.05 333.27C454.127 335.258 456.832 336.46 459.7 336.67C466.18 337.87 472.78 339.61 478.26 343.84C478.19 343.84 478.26 339 478.14 338.45C477.89 337 477.69 335.56 476.75 334.58C474.6 332.38 471.11 331.75 468.52 330.58Z" fill="#FBBEBE"/>
<path opacity="0.1" d="M468.52 330.58C462.737 328.025 458.106 323.419 455.52 317.65C454.97 316.41 454.52 315.12 454 313.87C452.285 309.709 449.621 306.007 446.22 303.06C445.854 302.661 445.407 302.345 444.908 302.134C444.409 301.924 443.871 301.823 443.33 301.84C442.807 301.999 442.335 302.294 441.963 302.695C441.591 303.095 441.331 303.587 441.21 304.12C440.911 305.258 440.836 306.443 440.99 307.61C441.282 310.358 441.757 313.084 442.41 315.77L443.99 322.98C444.185 324.092 444.521 325.174 444.99 326.2C445.668 327.415 446.567 328.494 447.64 329.38C449.09 330.72 450.56 332.01 452.05 333.27C454.127 335.258 456.832 336.46 459.7 336.67C466.18 337.87 472.78 339.61 478.26 343.84C478.19 343.84 478.26 339 478.14 338.45C477.89 337 477.69 335.56 476.75 334.58C474.6 332.38 471.11 331.75 468.52 330.58Z" fill="black"/>
<path d="M535.05 275.37C539.441 275.37 543 271.793 543 267.38C543 262.967 539.441 259.39 535.05 259.39C530.659 259.39 527.1 262.967 527.1 267.38C527.1 271.793 530.659 275.37 535.05 275.37Z" fill="#2F2E41"/>
<path d="M530.13 262.55C527.98 262.31 525.58 262.14 523.85 263.46C522.932 264.267 522.198 265.263 521.7 266.38C519.921 269.438 518.534 272.707 517.57 276.11C516.86 279.03 516.74 282.11 515.86 284.95C514.23 290.27 510.06 294.76 509.58 300.31C509.37 302.79 509.79 305.7 507.97 307.4C507.526 307.773 507.051 308.108 506.55 308.4C505.293 309.242 504.226 310.339 503.42 311.62C502.874 312.77 502.121 313.811 501.2 314.69C499.58 315.89 496.9 315.76 496.1 317.62C495.3 319.48 497.36 321.62 496.88 323.62C496.49 325.26 494.66 326.01 493.4 327.13C491.78 328.56 491.04 330.71 490.4 332.77C487.743 333.272 485.009 333.194 482.385 332.539C479.761 331.885 477.31 330.671 475.2 328.98C477.41 334.44 477.46 340.47 477.56 346.37C477.56 348.28 477.56 350.43 476.16 351.76C482.49 351.9 488.66 353.61 494.83 355.01C497.53 355.62 500.46 356.15 502.97 355.01C504.387 354.247 505.651 353.23 506.7 352.01C510.06 348.6 513.58 344.89 514.4 340.16C514.86 337.52 514.4 334.8 514.54 332.16C514.849 328.844 515.52 325.571 516.54 322.4C518.319 315.825 519.514 309.105 520.11 302.32C520.47 298.14 524.11 294.77 525.99 291.02C529.59 283.96 533.26 276.6 533.53 268.67C533.66 266.05 532.76 262.84 530.13 262.55Z" fill="#2F2E41"/>
<path opacity="0.1" d="M530.13 262.55C527.98 262.31 525.58 262.14 523.85 263.46C522.932 264.267 522.198 265.263 521.7 266.38C519.921 269.438 518.534 272.707 517.57 276.11C516.86 279.03 516.74 282.11 515.86 284.95C514.23 290.27 510.06 294.76 509.58 300.31C509.37 302.79 509.79 305.7 507.97 307.4C507.526 307.773 507.051 308.108 506.55 308.4C505.293 309.242 504.226 310.339 503.42 311.62C502.874 312.77 502.121 313.811 501.2 314.69C499.58 315.89 496.9 315.76 496.1 317.62C495.3 319.48 497.36 321.62 496.88 323.62C496.49 325.26 494.66 326.01 493.4 327.13C491.78 328.56 491.04 330.71 490.4 332.77C487.743 333.272 485.009 333.194 482.385 332.539C479.761 331.885 477.31 330.671 475.2 328.98C477.41 334.44 477.46 340.47 477.56 346.37C477.56 348.28 477.56 350.43 476.16 351.76C482.49 351.9 488.66 353.61 494.83 355.01C497.53 355.62 500.46 356.15 502.97 355.01C504.387 354.247 505.651 353.23 506.7 352.01C510.06 348.6 513.58 344.89 514.4 340.16C514.86 337.52 514.4 334.8 514.54 332.16C514.849 328.844 515.52 325.571 516.54 322.4C518.319 315.825 519.514 309.105 520.11 302.32C520.47 298.14 524.11 294.77 525.99 291.02C529.59 283.96 533.26 276.6 533.53 268.67C533.66 266.05 532.76 262.84 530.13 262.55Z" fill="black"/>
<path d="M522.66 389.87C515.86 386.63 510.88 380.6 505.38 375.43C494.88 365.57 482.03 358.59 470.99 349.34C463.67 343.22 457.13 336.08 449.09 330.95C442.014 326.452 433.996 323.646 425.66 322.75C424.705 322.58 423.724 322.628 422.79 322.89C421.736 323.356 420.817 324.082 420.12 325C416.558 329.021 413.39 333.374 410.66 338C396.66 361.75 376.78 381.75 360.31 403.82C359.79 404.345 359.482 405.044 359.445 405.782C359.408 406.52 359.645 407.246 360.11 407.82L363.46 414.38C365.33 418.06 368.34 422.38 372.38 421.61C374.23 421.27 375.7 419.91 377.06 418.61L392.06 404.24L407.83 389.16C417.07 380.33 426.46 371.29 432.49 360C437.19 368.16 445.55 373.5 451.28 381C453.46 383.84 455.28 387 457.18 390C460.3 394.82 463.85 399.35 467.39 403.87L485.48 426.96C487.94 430.1 490.48 433.32 493.85 435.45C498.14 438.16 503.35 438.88 508.39 439.33C515.186 439.937 522.008 440.184 528.83 440.07C534.03 439.98 539.39 439.64 544.06 437.33C548.73 435.02 552.56 430.33 552.32 425.05C552.034 422.337 551.142 419.722 549.71 417.4C543.29 405.5 534.84 395.65 522.66 389.87Z" fill="#2F2E41"/>
<path d="M539.94 279.06C543.314 279.06 546.05 276.307 546.05 272.91C546.05 269.513 543.314 266.76 539.94 266.76C536.565 266.76 533.83 269.513 533.83 272.91C533.83 276.307 536.565 279.06 539.94 279.06Z" fill="#E8E8F0"/>
<path d="M538.59 268.29C539.964 271.028 540.205 274.196 539.26 277.11C538.314 279.985 536.993 282.722 535.33 285.25C533.899 287.86 532.186 290.305 530.22 292.54C539.65 293 548.8 289.3 557.12 284.81C563.82 281.21 570.5 276.75 574.12 270.01C573.056 270.268 571.949 270.299 570.873 270.1C569.796 269.902 568.773 269.48 567.87 268.86C566.074 267.606 564.465 266.105 563.09 264.4L558.35 259.07C557.238 257.912 556.261 256.63 555.44 255.25C554.413 253.362 553.977 251.209 554.19 249.07C552.309 251.041 550.205 252.786 547.92 254.27C544.54 256.47 540.81 258.07 537.42 260.27C536.22 261.04 533.54 262.27 534.23 263.86C534.92 265.45 537.66 266.61 538.59 268.29Z" fill="#FBBEBE"/>
<path opacity="0.1" d="M538.59 268.29C539.964 271.028 540.205 274.196 539.26 277.11C538.314 279.985 536.993 282.722 535.33 285.25C533.899 287.86 532.186 290.305 530.22 292.54C539.65 293 548.8 289.3 557.12 284.81C563.82 281.21 570.5 276.75 574.12 270.01C573.056 270.268 571.949 270.299 570.873 270.1C569.796 269.902 568.773 269.48 567.87 268.86C566.074 267.606 564.465 266.105 563.09 264.4L558.35 259.07C557.238 257.912 556.261 256.63 555.44 255.25C554.413 253.362 553.977 251.209 554.19 249.07C552.309 251.041 550.205 252.786 547.92 254.27C544.54 256.47 540.81 258.07 537.42 260.27C536.22 261.04 533.54 262.27 534.23 263.86C534.92 265.45 537.66 266.61 538.59 268.29Z" fill="black"/>
<path d="M538.72 269.22C536.95 272.22 536.57 275.72 538.72 278.44C538.99 278.78 539.98 280.88 540.41 280.9C540.826 280.858 541.212 280.662 541.49 280.35C543.78 278.26 545.49 275.59 547.49 273.22C549.49 270.85 552.04 268.7 555.1 268.22C558.79 267.65 562.36 269.6 565.59 271.49C566.995 272.175 568.221 273.178 569.17 274.42C569.851 275.651 570.254 277.016 570.35 278.42C571.46 286.83 571.44 295.35 571.41 303.83C571.41 309.97 571.41 316.14 570.21 322.16C569.61 325.28 568.71 328.33 568.28 331.47C567.971 334.242 567.848 337.032 567.91 339.82V351.5C567.829 353.643 567.98 355.789 568.36 357.9C568.91 360.46 570.12 362.82 570.93 365.31C571.766 368.172 572.339 371.104 572.64 374.07L574.24 386.16C574.74 389.97 575.11 394.16 572.81 397.16C571.81 398.54 570.4 399.65 569.35 401.03C565.35 406.17 566.66 413.52 565.01 419.81C563.712 424.415 561.039 428.514 557.35 431.56C554.52 433.96 550.87 435.84 547.24 435.17C542.33 434.26 539.38 429.17 538.04 424.3C536.7 419.43 536.22 414.2 533.32 410.12C530.95 406.78 527.32 404.68 523.96 402.3C520.6 399.92 517.4 396.85 516.68 392.81C516.36 391.05 516.56 389.24 516.37 387.46C516.109 385.204 515.245 383.06 513.869 381.253C512.493 379.445 510.655 378.042 508.55 377.19C506.04 376.19 502.94 375.86 501.55 373.56C505.21 371.5 507.63 367.69 508.91 363.68C510.19 359.67 510.45 355.41 510.7 351.21L511.54 337.16C511.91 330.88 512.08 324.66 514.85 319.02C516.08 316.49 517.62 314.13 518.91 311.64C520.612 308.136 522.065 304.517 523.26 300.81C525.26 295.05 527.26 289.29 529.06 283.46C529.776 280.644 530.845 277.929 532.24 275.38C533.66 272.94 535.88 269.75 538.72 269.22Z" fill="#6C63FF"/>
<path d="M507.52 360.5L511.24 360.63L512.03 355.02C512.131 353.895 512.393 352.79 512.81 351.74C513.426 350.633 514.142 349.585 514.95 348.61C518.61 343.44 518.34 336.61 519.25 330.3C520.46 321.92 523.96 314.08 527.42 306.37L534.66 290.28C536.094 287.547 536.784 284.484 536.66 281.4C536.73 278.91 537.46 269.87 537.53 267.4C537.53 266.48 535.53 266.99 535.08 266.17C534.18 264.38 532.94 269.23 531.25 270.29C529.56 271.35 528.62 273.29 527.91 275.15C526.35 279.2 525.4 283.46 523.91 287.55C522.42 291.64 520.44 295.66 517.17 298.55C515.69 299.85 513.99 300.87 512.59 302.26C508.1 306.7 507.66 313.71 507.5 320.04C507.42 323.75 506.66 360.5 507.52 360.5Z" fill="#2F2E41"/>
<path d="M561.04 262.51C557.43 263.93 555.45 267.85 554.44 271.61C553.43 275.37 553.01 279.39 551.07 282.76C546.53 290.65 534.97 292.95 531.78 301.48C530.78 304.27 530.78 307.33 530.49 310.3C529.91 316.41 527.9 322.3 527.31 328.42C526.995 333.167 527.105 337.933 527.64 342.66L531.64 390.85C532.23 397.85 532.21 405.28 530.43 412.04C534.52 412.83 538.78 411.77 542.57 410.04C546.36 408.31 549.83 405.93 553.48 403.92C559.76 400.45 566.69 398 572.19 393.38C573.187 392.605 574.04 391.66 574.71 390.59C575.81 388.69 575.91 386.38 576.43 384.24C576.904 382.529 577.509 380.858 578.24 379.24C580.255 374.383 582.01 369.423 583.5 364.38C584.523 361.036 585.328 357.629 585.91 354.18C586.35 351.44 586.59 348.66 586.83 345.89C587.123 341.55 587.984 337.267 589.39 333.15C592.904 323.337 594.897 313.045 595.3 302.63C595.413 301.126 595.309 299.614 594.99 298.14C594.373 296.353 593.554 294.642 592.55 293.04C590.87 289.88 589.86 286.4 588.28 283.18C584.7 275.93 578.37 270.42 571.75 265.81C568.53 263.56 564.73 261.07 561.04 262.51Z" fill="#2F2E41"/>
<path d="M476.57 341.13C473.698 339.623 471.099 337.645 468.88 335.28C467.88 334.1 467.04 332.77 466.01 331.61C463.414 328.836 460.039 326.912 456.33 326.09C452.65 325.282 448.887 324.916 445.12 325C442.599 324.839 440.07 325.145 437.66 325.9C436.454 326.294 435.368 326.988 434.504 327.917C433.64 328.846 433.026 329.979 432.72 331.21C432.17 334.21 434.13 337.12 436.48 339.05C438.668 340.835 441.243 342.085 444 342.7C446.247 343.089 448.514 343.352 450.79 343.49C464.17 344.89 476.11 352.17 487.79 358.8C498.09 364.633 508.587 370.08 519.28 375.14C519.701 371.935 519.879 368.702 519.81 365.47C519.75 363.06 519.63 359.38 517.35 357.96C514.7 356.31 510.35 355.96 507.35 354.96C500.458 352.7 493.726 349.977 487.2 346.81C483.593 345.043 480.05 343.15 476.57 341.13Z" fill="#FBBEBE"/>
<path d="M558.733 248.193C562.099 235.39 554.505 222.297 541.771 218.949C529.037 215.601 515.986 223.266 512.62 236.069C509.254 248.873 516.848 261.966 529.582 265.313C542.315 268.661 555.367 260.996 558.733 248.193Z" fill="#FBBEBE"/>
<path d="M567.86 289.69C565.73 292.17 564.66 295.37 563.23 298.31C560.29 304.37 555.67 309.57 553.36 315.91C550.92 322.59 551 330.53 546.22 335.78C545.39 336.69 544.39 337.57 544.15 338.78C544.117 339.515 544.034 340.247 543.9 340.97C543.22 342.87 540.1 342.97 539.52 344.91C539.35 345.48 539.44 346.1 539.23 346.66C538.75 347.91 537.1 348.1 535.99 348.86C533.67 350.43 534.14 354.07 532.49 356.34C531.766 357.189 530.828 357.83 529.773 358.196C528.718 358.561 527.585 358.639 526.49 358.42C524.323 357.975 522.238 357.196 520.31 356.11C519.625 355.73 518.87 355.495 518.09 355.42C517.166 355.449 516.272 355.752 515.52 356.29C511.12 359.09 509.05 364.64 509.08 369.88C509.11 375.12 510.91 380.16 512.75 385.06C513.005 385.886 513.419 386.654 513.97 387.32C515.43 388.86 517.97 388.62 519.91 387.76C521.85 386.9 523.61 385.55 525.69 385.17C529.38 384.5 532.99 387.04 536.69 386.83C539.43 386.67 541.86 385.08 544.13 383.54C547.77 381.08 551.47 378.54 554.13 375.06C555.77 372.92 556.97 370.49 558.4 368.2C560.23 365.41 562.234 362.738 564.4 360.2L578.14 343.38C579.519 341.787 580.757 340.077 581.84 338.27C583.091 335.829 584.057 333.252 584.72 330.59C586.03 326.1 587.35 321.59 587.57 316.9C587.646 313.052 587.311 309.207 586.57 305.43C586.096 301.666 585.085 297.988 583.57 294.51C580.74 288.27 573.47 283.14 567.86 289.69Z" fill="#2F2E41"/>
<path d="M609.42 278.99C610.52 274.885 610.63 270.578 609.74 266.423C608.849 262.268 606.985 258.384 604.3 255.09C607.95 239.52 600 223.93 586 218.16C586.5 203.56 577.25 190.16 563 186.4C548.19 182.51 533 190.33 526.61 204.23C517.61 199.56 508.09 200.06 504.95 205.55C501.67 211.29 506.6 220.32 515.95 225.71C518.897 227.432 522.122 228.627 525.48 229.24C526.922 233.319 529.202 237.051 532.173 240.196C535.143 243.34 538.74 245.829 542.73 247.5C542.484 253.403 543.888 259.258 546.785 264.407C549.682 269.556 553.957 273.796 559.13 276.65C559.695 280.753 561.212 284.668 563.56 288.08C563.285 288.796 563.051 289.527 562.86 290.27C559.92 301.42 566.28 312.76 577.05 315.59C587.82 318.42 598.94 311.68 601.87 300.53C602.658 297.558 602.794 294.45 602.27 291.42C605.726 287.994 608.196 283.7 609.42 278.99Z" fill="#3F3D56"/>
<path opacity="0.1" d="M511.12 208.45C514.26 202.96 523.77 202.45 532.78 207.13C539.15 193.23 554.36 185.4 569.17 189.3C569.84 189.47 570.5 189.68 571.17 189.9C568.637 188.338 565.887 187.158 563.01 186.4C548.2 182.51 533.01 190.33 526.62 204.23C517.62 199.56 508.1 200.06 504.96 205.55C501.68 211.29 506.61 220.32 515.96 225.71C517.715 226.72 519.563 227.557 521.48 228.21C512.54 222.75 507.92 214.05 511.12 208.45Z" fill="black"/>
<path opacity="0.1" d="M569.04 293.17C569.231 292.427 569.465 291.696 569.74 290.98C567.392 287.564 565.875 283.646 565.31 279.54C560.137 276.688 555.862 272.451 552.965 267.303C550.067 262.155 548.663 256.302 548.91 250.4C544.92 248.729 541.323 246.24 538.353 243.095C535.382 239.951 533.102 236.219 531.66 232.14C529.702 231.791 527.788 231.231 525.95 230.47C527.477 234.275 529.747 237.737 532.626 240.656C535.505 243.575 538.936 245.891 542.72 247.47C542.474 253.373 543.878 259.228 546.775 264.377C549.672 269.526 553.947 273.766 559.12 276.62C559.685 280.723 561.202 284.638 563.55 288.05C563.275 288.766 563.041 289.497 562.85 290.24C559.92 301.35 566.23 312.65 576.94 315.53C573.506 313.048 570.911 309.578 569.499 305.583C568.088 301.588 567.928 297.258 569.04 293.17Z" fill="black"/>
<path d="M545.959 250.381C547.573 249.155 547.551 246.41 545.911 244.251C544.271 242.092 541.633 241.335 540.019 242.561C538.405 243.787 538.426 246.531 540.066 248.691C541.706 250.85 544.345 251.607 545.959 250.381Z" fill="#FBBEBE"/>
<path d="M252.8 39.34C261.797 39.34 269.09 32.0467 269.09 23.05C269.09 14.0533 261.797 6.76001 252.8 6.76001C243.803 6.76001 236.51 14.0533 236.51 23.05C236.51 32.0467 243.803 39.34 252.8 39.34Z" fill="#3F3D56"/>
<path d="M288.15 118.4C313.384 118.4 333.84 91.8953 333.84 59.2C333.84 26.5047 313.384 0 288.15 0C262.916 0 242.46 26.5047 242.46 59.2C242.46 91.8953 262.916 118.4 288.15 118.4Z" fill="#3F3D56"/>
<path opacity="0.1" d="M288.15 100.52C265.26 100.52 246.3 78.71 242.97 50.26C242.624 53.2274 242.45 56.2125 242.45 59.2C242.45 91.89 262.91 118.4 288.15 118.4C313.39 118.4 333.84 91.89 333.84 59.2C333.84 56.2125 333.666 53.2274 333.32 50.26C330 78.75 311.04 100.52 288.15 100.52Z" fill="black"/>
<path d="M385.51 232.58C384.51 236.58 380.3 239.84 375.62 242.09C365.76 246.84 353.62 248.25 341.83 248.73C338.83 248.912 335.821 248.855 332.83 248.56C326.66 247.83 320.94 245.2 317.37 241.45C316.861 241.041 316.508 240.469 316.37 239.83C316.395 239.447 316.496 239.072 316.668 238.729C316.84 238.386 317.078 238.08 317.37 237.83C323.66 230.97 334.14 226.75 344.66 223.75C352.66 221.44 366.6 215.46 375.33 216.27C383.81 217 386.75 227.48 385.51 232.58Z" fill="#3F3D56"/>
<path opacity="0.1" d="M385.51 232.58C384.51 236.58 380.3 239.84 375.62 242.09C365.76 246.84 353.62 248.25 341.83 248.73C338.83 248.912 335.821 248.855 332.83 248.56C326.66 247.83 320.94 245.2 317.37 241.45C316.861 241.041 316.508 240.469 316.37 239.83C316.395 239.447 316.496 239.072 316.668 238.729C316.84 238.386 317.078 238.08 317.37 237.83C323.66 230.97 334.14 226.75 344.66 223.75C352.66 221.44 366.6 215.46 375.33 216.27C383.81 217 386.75 227.48 385.51 232.58Z" fill="black"/>
<path d="M260.25 202.44C257.251 208.324 256.708 215.157 258.74 221.44C260.812 227.688 264.692 233.18 269.89 237.22C282.66 247.47 300.18 248.88 316.51 248.75C330.829 248.621 345.128 247.639 359.33 245.81C364.06 245.2 368.84 244.48 373.22 242.59C378.55 240.28 383.22 236.05 385.13 230.59C387.04 225.13 385.69 218.37 381.13 214.71C377.13 211.49 371.7 211.05 366.61 210.71L337.46 208.96C340.34 206.04 344.17 204.39 347.68 202.28C352.33 199.46 355.42 194.74 358.81 190.49C363.81 184.13 369.81 178.57 375.81 173.04C376.81 178.48 380.2 182.95 384.25 186.71C388.3 190.47 392.97 193.49 397.19 197.06C407.39 205.72 414.73 217.48 425.46 225.48C432.842 223.539 439.743 220.094 445.73 215.36L441.56 207.81C441.218 207.019 440.677 206.33 439.99 205.81C438.8 205.09 437.28 205.46 435.91 205.26C432.25 204.71 430.65 200.48 429.21 197.07C425.27 187.69 417.71 180.42 411.21 172.56C406.469 166.765 402.269 160.55 398.66 153.99C396.49 150.08 394.51 145.99 391.56 142.62C388.61 139.25 384.5 136.62 380.02 136.62C376.02 136.62 372.42 138.62 369.02 140.62C358.663 146.774 348.697 153.563 339.18 160.95C334.18 164.81 329.25 168.9 323.41 171.27C320.95 172.27 318.41 172.95 316 174.16C311.87 176.29 308.73 179.89 305.35 183.08C293.31 194.47 276.82 201.85 260.25 202.44Z" fill="#605D82"/>
<path d="M321.21 121.34C321.08 124.826 320.339 128.261 319.02 131.49C318.352 133.094 317.361 134.544 316.109 135.748C314.856 136.952 313.369 137.886 311.74 138.49C309.422 139.111 306.993 139.19 304.64 138.72C302.584 138.498 300.605 137.815 298.85 136.72C296.12 134.84 294.76 131.49 294.26 128.21C293.76 124.93 293.99 121.58 293.67 118.28C293.359 115.613 292.85 112.972 292.15 110.38C291.94 109.52 291.72 108.66 291.5 107.8C291.28 106.94 291.09 106.08 290.9 105.22C290.71 104.36 290.56 103.61 290.42 102.79C290.28 101.97 290.2 101.41 290.13 100.72C290.066 98.6581 289.73 96.6137 289.13 94.64C288.56 93.3623 287.846 92.1544 287 91.04C286.64 90.52 286.29 90.04 286 89.47C285.069 88.0768 284.636 86.4102 284.77 84.74C284.808 84.4811 284.872 84.2265 284.96 83.98C284.991 83.8844 285.027 83.7909 285.07 83.7C285.427 83.6021 285.754 83.419 286.024 83.1664C286.294 82.9138 286.499 82.5993 286.62 82.25C286.757 81.4964 286.691 80.72 286.43 80C286.136 78.9944 285.73 78.025 285.22 77.11C284.89 76.51 283.76 75.42 283.75 74.73C283.75 73.34 286.45 72.22 287.55 71.67C290.91 69.9846 294.659 69.2252 298.41 69.47C300.81 69.63 303.41 70.37 304.74 72.39C305.94 74.2 305.74 76.55 306.29 78.66C306.336 78.9681 306.464 79.2582 306.66 79.5C306.921 79.7374 307.25 79.8877 307.6 79.93C308.186 80.0482 308.787 80.0718 309.38 80C309.538 79.9914 309.696 79.968 309.85 79.93C310.775 79.759 311.649 79.3832 312.41 78.83C312.91 78.69 313.41 78.59 313.9 78.5H313.96C315.96 84.78 316.21 91.5 317.84 97.92C318.65 101.1 319.84 104.24 319.97 107.52C319.97 107.66 319.97 107.81 319.97 107.95C319.97 109.01 319.91 110.07 319.97 111.12C319.988 111.59 320.042 112.058 320.13 112.52C320.31 113.265 320.531 113.999 320.79 114.72C320.86 114.95 320.93 115.18 320.99 115.42C321.039 115.588 321.08 115.758 321.11 115.93C321.403 117.719 321.437 119.541 321.21 121.34Z" fill="#FBBEBE"/>
<path d="M293.33 80.26C306.276 80.26 316.77 69.7656 316.77 56.82C316.77 43.8744 306.276 33.38 293.33 33.38C280.384 33.38 269.89 43.8744 269.89 56.82C269.89 69.7656 280.384 80.26 293.33 80.26Z" fill="#FBBEBE"/>
<path d="M442.16 184.54C441.477 178.151 439.204 172.035 435.55 166.75L437.38 177.6C436.621 177.817 435.815 177.809 435.06 177.577C434.306 177.344 433.635 176.897 433.13 176.29C432.141 175.057 431.385 173.654 430.9 172.15C428.237 165.54 424.753 159.291 420.53 153.55C405.61 152.3 390.85 146.12 377.73 138.9C364.61 131.68 352.32 123.05 339.36 115.54C337.113 114.185 334.774 112.989 332.36 111.96C328.31 110.34 323.76 109.5 319.92 107.59L319.15 107.18C318.28 106.713 317.456 106.164 316.69 105.54C316.279 105.2 315.888 104.836 315.52 104.45C313.602 102.222 312.08 99.6819 311.02 96.94C308.96 92.38 308.22 86.87 306.17 82.31C307.116 81.4295 308.175 80.6795 309.32 80.08L309.82 79.83C310.635 79.4496 311.481 79.1418 312.35 78.91C312.85 78.77 313.35 78.67 313.84 78.58H313.9C316.224 78.2054 318.604 78.394 320.84 79.13C324.1 80.24 326.84 82.44 329.6 84.53C333.95 87.82 338.47 90.92 342.42 94.69C344.68 96.86 346.75 99.24 349.18 101.21C351.206 102.774 353.342 104.191 355.57 105.45L395.11 129C399.57 131.65 404.04 134.31 408.4 137.13C415.03 141.4 421.4 146.03 427.8 150.66L439.09 158.84C440.327 159.642 441.41 160.657 442.29 161.84C443.064 163.166 443.545 164.642 443.7 166.17C444.638 172.329 444.111 178.623 442.16 184.54Z" fill="#FBBEBE"/>
<path d="M327.03 138.97C325.44 146.06 318.28 150.35 314.53 156.58C309.87 164.31 311.77 173.3 313.53 182.16L303.94 190.42C302.18 191.93 300.41 193.42 298.52 194.79C295.748 196.653 292.851 198.324 289.85 199.79L281.37 204.15C278.739 205.628 275.952 206.809 273.06 207.67C267.48 209.1 261.56 208.1 256.06 206.45C255.409 206.28 254.784 206.025 254.2 205.69C253.857 205.484 253.558 205.212 253.32 204.89C252.772 203.915 252.574 202.783 252.76 201.68C253.32 192.4 255.59 183.31 257.85 174.29C259.038 168.873 260.646 163.557 262.66 158.39C264.644 153.967 266.926 149.684 269.49 145.57C272.49 140.5 275.49 135.39 279.49 131.04C281.2 129.16 283.11 127.38 284.13 125.04C285.54 121.82 284.99 118.13 285.28 114.63C285.496 111.995 286.194 109.423 287.34 107.04C287.953 105.758 288.69 104.539 289.54 103.4C289.93 104.3 290.31 105.2 290.7 106.09L291.45 107.85C291.78 108.6 292.1 109.36 292.45 110.11C293.383 112.257 294.31 114.407 295.23 116.56C296.223 119.272 297.644 121.808 299.44 124.07C301.35 126.23 304.16 127.8 307.02 127.49C308.363 127.266 309.64 126.746 310.757 125.968C311.874 125.189 312.804 124.172 313.48 122.99C314.82 120.622 315.788 118.062 316.35 115.4C317.138 112.161 317.247 108.793 316.67 105.51C315.67 99.18 313.02 92.72 311.07 86.84C310.275 84.8809 309.815 82.8018 309.71 80.69C309.709 80.4515 309.732 80.2136 309.78 79.98V79.8C310.595 79.4196 311.441 79.1118 312.31 78.88C312.81 78.74 313.31 78.64 313.8 78.55C315.52 87.8833 317.243 97.1966 318.97 106.49C318.97 106.71 319.06 106.93 319.1 107.15C319.34 108.49 319.59 109.82 319.87 111.15C320.15 112.48 320.39 113.56 320.69 114.75C320.79 115.15 320.9 115.56 321.01 115.96C321.32 117.06 321.66 118.14 322.01 119.22C324.45 125.75 328.52 132.26 327.03 138.97Z" fill="#6C63FF"/>
<path d="M422.17 238.64C422.084 240.017 422.348 241.394 422.94 242.64C424.4 245.32 427.94 245.93 430.94 246.18C448.734 247.647 466.637 247.103 484.31 244.56C485.27 244.49 486.201 244.199 487.03 243.71C489.54 241.95 488.03 237.66 485.25 236.28C482.47 234.9 479.25 235.28 476.25 234.65C473.258 233.893 470.408 232.657 467.81 230.99C461.71 227.483 455.71 223.817 449.81 219.99C446.28 217.72 442.11 215.3 438.14 216.65C427.35 220.29 422.09 227.03 422.17 238.64Z" fill="#2F2E41"/>
<path d="M290.99 104.75L290.9 105.24L290.75 106.06C290.26 108.58 289.65 111.06 288.96 113.59C287.05 120.48 284.5 127.27 281.96 133.95L261.55 187.75C259.83 192.27 258.12 196.75 256.17 201.21C255.52 202.68 254.85 204.21 254.17 205.67C251.78 211.04 249.48 216.59 248.72 222.32C248.22 226.11 247.72 229.98 248.47 233.73C249.22 237.48 251.47 241.15 255.08 242.53C256.82 243.21 259.31 244.12 258.83 245.93C258.58 246.93 257.45 247.41 256.43 247.57C255.093 247.786 253.724 247.703 252.422 247.328C251.12 246.953 249.918 246.294 248.9 245.4C247 243.72 245.53 241.09 243 240.81C241.25 240.62 239.64 241.67 238 242.4C231.45 245.4 223.83 243.3 216.95 241.17C217.49 238.39 220.29 236.55 223.06 236C225.83 235.45 228.71 235.83 231.55 235.76C232.458 235.807 233.359 235.574 234.13 235.09C234.826 234.468 235.324 233.654 235.56 232.75C237.382 227.343 238.737 221.789 239.61 216.15C240.53 210.25 240.91 204.27 242.21 198.45C243.21 193.91 244.79 189.51 246.13 185.05C248.731 175.871 250.864 166.566 252.52 157.17C253.359 153.27 253.96 149.323 254.32 145.35C254.55 142.05 254.44 138.73 254.76 135.45C255.291 131.176 256.181 126.955 257.42 122.83C258.64 118.32 259.85 113.83 261.07 109.33C262.87 102.67 264.8 95.76 269.36 90.59C270.943 88.7678 272.884 87.2904 275.061 86.2497C277.239 85.2089 279.608 84.627 282.02 84.54C282.925 84.5359 283.827 84.6332 284.71 84.83L285.15 84.94C286.116 85.1888 287.042 85.5725 287.9 86.08C289.31 85.18 290.02 85.5 290.96 86.87C291.776 88.3331 292.161 89.9973 292.07 91.67C292.142 96.0549 291.78 100.436 290.99 104.75Z" fill="#FBBEBE"/>
<path d="M292.53 110.06L292.47 110.12L292.15 110.44L288.96 113.63L287.39 107.05L282.02 84.51C282.925 84.5059 283.827 84.6032 284.71 84.8C284.748 84.5411 284.812 84.2865 284.9 84.04L285.15 84.91L286.97 91.1L290.42 102.85L290.99 104.79L292.53 110.06Z" fill="#6C63FF"/>
<path d="M310.44 22.25H283.58C276.953 22.25 271.58 27.6226 271.58 34.25V42.04C271.58 48.6674 276.953 54.04 283.58 54.04H310.44C317.067 54.04 322.44 48.6674 322.44 42.04V34.25C322.44 27.6226 317.067 22.25 310.44 22.25Z" fill="#3F3D56"/>
<path d="M325.41 39.34C334.407 39.34 341.7 32.0467 341.7 23.05C341.7 14.0533 334.407 6.76001 325.41 6.76001C316.413 6.76001 309.12 14.0533 309.12 23.05C309.12 32.0467 316.413 39.34 325.41 39.34Z" fill="#3F3D56"/>
<path opacity="0.1" d="M325.02 6.75H324.42C328.616 6.93017 332.579 8.72361 335.484 11.756C338.389 14.7885 340.011 18.8256 340.011 23.025C340.011 27.2244 338.389 31.2615 335.484 34.294C332.579 37.3264 328.616 39.1198 324.42 39.3H325.02C329.34 39.3 333.484 37.5837 336.539 34.5288C339.594 31.4738 341.31 27.3304 341.31 23.01C341.31 18.6896 339.594 14.5462 336.539 11.4912C333.484 8.43626 329.34 6.72 325.02 6.72V6.75Z" fill="black"/>
<path opacity="0.1" d="M252.8 6.75H253.4C249.204 6.93017 245.241 8.72361 242.336 11.756C239.431 14.7885 237.809 18.8256 237.809 23.025C237.809 27.2244 239.431 31.2615 242.336 34.294C245.241 37.3264 249.204 39.1198 253.4 39.3H252.8C250.661 39.3 248.542 38.8786 246.566 38.06C244.59 37.2413 242.794 36.0414 241.281 34.5288C239.769 33.0161 238.569 31.2203 237.75 29.2439C236.931 27.2675 236.51 25.1492 236.51 23.01C236.51 20.8708 236.931 18.7525 237.75 16.7761C238.569 14.7997 239.769 13.0039 241.281 11.4912C242.794 9.97856 244.59 8.77866 246.566 7.96001C248.542 7.14136 250.661 6.72 252.8 6.72V6.75Z" fill="black"/>
<path opacity="0.1" d="M322.94 50.85H281.66C280.397 50.85 279.185 50.3488 278.291 49.4564C277.396 48.564 276.893 47.3533 276.89 46.09V49.26C276.893 50.5243 277.396 51.736 278.29 52.63C279.184 53.524 280.396 54.0274 281.66 54.03H322.98C324.244 54.0274 325.456 53.524 326.35 52.63C327.244 51.736 327.747 50.5243 327.75 49.26V46.09C327.747 46.7186 327.621 47.3404 327.378 47.92C327.134 48.4996 326.779 49.0255 326.332 49.4677C325.886 49.9098 325.356 50.2595 324.774 50.4967C324.192 50.7339 323.569 50.854 322.94 50.85Z" fill="black"/>
<path d="M462.98 217.6C462.98 217.6 465.56 218.05 465.98 215.96C466.19 214.96 465.48 208.54 464.67 202.12C464.28 198.96 463.86 195.81 463.52 193.29C463.11 190.2 462.81 188.07 462.81 188.07L462.34 186.51L459.56 177.17L456.94 168.37L455.01 164.91L441.12 171.67L432.48 186.6L435.16 188.29L435.63 188.59L440.56 193.75L454.38 208.25L460.6 214.78L461.33 215.54L462.98 217.6Z" fill="#FFE09C"/>
<path d="M452.06 158.97C452.06 158.97 436.84 166.11 433.18 173.87C433.18 173.87 429.76 180.4 429.33 183.87C429.33 183.87 428.33 187.04 434.64 187.82C434.64 187.82 437.51 176.17 446.12 171.11L454.74 166.06L452.06 158.97Z" fill="#E7C4C3"/>
<path d="M456.026 176.894C456.768 174.124 455.468 171.369 453.122 170.74C450.775 170.111 448.271 171.847 447.529 174.616C446.786 177.386 448.087 180.141 450.433 180.77C452.78 181.399 455.284 179.664 456.026 176.894Z" fill="#FF7F8E"/>
<path d="M454.375 194.999C455.11 192.24 453.811 189.498 451.473 188.876C449.136 188.253 446.645 189.984 445.91 192.743C445.175 195.503 446.474 198.244 448.811 198.867C451.149 199.49 453.639 197.758 454.375 194.999Z" fill="#FF7F8E"/>
<path d="M440.56 193.75C441.357 193.426 442.066 192.917 442.628 192.265C443.19 191.613 443.588 190.837 443.79 190C444.53 187.24 443.23 184.49 440.89 183.87C438.55 183.25 436.06 184.98 435.33 187.74C435.272 187.926 435.229 188.117 435.2 188.31L435.67 188.61L440.56 193.75Z" fill="#FF7F8E"/>
<path d="M459.15 187.08C459.698 187.219 460.269 187.24 460.826 187.141C461.383 187.043 461.912 186.828 462.38 186.51L459.6 177.17C458.772 177.477 458.032 177.984 457.446 178.645C456.86 179.306 456.446 180.101 456.24 180.96C455.51 183.75 456.81 186.46 459.15 187.08Z" fill="#FF7F8E"/>
<path d="M460.76 203.24C461.459 203.405 462.189 203.389 462.88 203.193C463.572 202.997 464.201 202.628 464.71 202.12C464.32 198.96 463.9 195.81 463.56 193.29H463.43C461.09 192.66 458.6 194.4 457.86 197.16C457.12 199.92 458.43 202.62 460.76 203.24Z" fill="#FF7F8E"/>
<path d="M460.6 214.75C460.887 214.266 461.106 213.744 461.25 213.2C461.99 210.44 460.69 207.7 458.35 207.08C457.642 206.908 456.901 206.923 456.2 207.123C455.499 207.323 454.861 207.701 454.35 208.22L460.6 214.75Z" fill="#FF7F8E"/>
<path d="M453.73 172.93L455.33 173.36C454.701 174.517 454.33 175.796 454.24 177.11C454.235 177.197 454.235 177.283 454.24 177.37C454.45 179.02 452.64 176.94 452.64 176.94C452.64 176.94 452.95 173.55 453.73 172.93Z" fill="#94CC79"/>
<path d="M446.44 183.25L448.05 183.68C447.416 184.831 447.044 186.108 446.96 187.42C446.955 187.507 446.955 187.593 446.96 187.68C447.17 189.33 445.36 187.25 445.36 187.25C445.36 187.25 445.66 183.86 446.44 183.25Z" fill="#94CC79"/>
<path d="M451.42 186.66L453.02 187.08C452.391 188.237 452.02 189.516 451.93 190.83C451.925 190.917 451.925 191.003 451.93 191.09C452.15 192.74 450.33 190.66 450.33 190.66C450.33 190.66 450.66 187.27 451.42 186.66Z" fill="#94CC79"/>
<path d="M457.82 195.27L459.43 195.69C458.797 196.845 458.424 198.125 458.34 199.44C458.335 199.527 458.335 199.613 458.34 199.7C458.55 201.35 456.74 199.27 456.74 199.27C456.74 199.27 457.05 195.88 457.82 195.27Z" fill="#94CC79"/>
<path d="M461.81 209.44L463.41 209.87C462.782 211.024 462.411 212.3 462.32 213.61C462.315 213.697 462.315 213.783 462.32 213.87C462.54 215.52 460.72 213.45 460.72 213.45C460.72 213.45 461.03 210.05 461.81 209.44Z" fill="#94CC79"/>
<path d="M453.13 199.53L454.73 199.96C454.098 201.129 453.732 202.423 453.66 203.75C453.655 203.837 453.655 203.923 453.66 204.01C453.87 205.66 452.06 203.59 452.06 203.59C452.06 203.59 452.36 200.14 453.13 199.53Z" fill="#94CC79"/>
<path d="M457.01 160.29C457.01 160.29 454.72 155.1 452.01 158.97C452.238 162.112 453.272 165.143 455.01 167.77C455.01 167.77 463.3 190.32 462.61 193.77C462.61 193.77 465.88 215.55 465.07 216.77C465.07 216.77 465.97 218.31 466.61 212.52C467.25 206.73 464.44 189.72 464.44 189.72L460.33 172.04L457.58 166.04L457.01 160.29Z" fill="#E7C4C3"/>
<path opacity="0.2" d="M457.01 160.29C457.01 160.29 454.72 155.1 452.01 158.97C452.238 162.112 453.272 165.143 455.01 167.77C455.01 167.77 463.3 190.32 462.61 193.77C462.61 193.77 465.88 215.55 465.07 216.77C465.07 216.77 465.97 218.31 466.61 212.52C467.25 206.73 464.44 189.72 464.44 189.72L460.33 172.04L457.58 166.04L457.01 160.29Z" fill="white"/>
<path d="M429.51 168.89C429.51 168.89 433.62 180.73 437.38 177.58L434.38 162.11L429.51 168.89Z" fill="#FBBEBE"/>
<path d="M148.41 217.52C148.41 217.52 184.66 278.59 193.13 286.75C193.13 286.75 229.35 324.35 210.94 321.75C209.59 321.56 183.08 299.15 181.53 295.47C179.98 291.79 129.86 226.68 129.86 226.68L137.01 220.1L148.41 217.52Z" fill="#A0616A"/>
<path opacity="0.1" d="M148.41 217.52C148.41 217.52 184.66 278.59 193.13 286.75C193.13 286.75 229.35 324.35 210.94 321.75C209.59 321.56 183.08 299.15 181.53 295.47C179.98 291.79 129.86 226.68 129.86 226.68L137.01 220.1L148.41 217.52Z" fill="black"/>
<path d="M181.56 416.97C181.56 416.97 169.96 431.47 174.8 437.27C179.64 443.07 203.75 454.16 211.53 453.7C219.75 453.22 247.3 454.7 248.27 442.1C248.27 442.1 250.2 436.3 225.07 435.33C199.94 434.36 207.66 408.26 207.66 408.26L181.56 416.97Z" fill="#2F2E41"/>
<path d="M43.32 294.19C43.32 294.19 31.72 333.82 66.52 340.59L104.22 338.66C104.22 338.66 157.39 328.02 171.9 335.76C171.9 335.76 177.7 336.76 175.76 344.46C173.82 352.16 178.66 404.4 178.66 404.4V421.8C178.66 421.8 211.53 421.8 215.4 417.93C215.4 417.93 212.5 402.46 215.4 389.93C218.3 377.4 210.57 337.72 210.57 337.72L209.8 313.91C209.741 310.959 208.898 308.078 207.356 305.561C205.815 303.044 203.632 300.983 201.03 299.59C199.202 298.622 197.169 298.104 195.1 298.08C195.1 298.08 129.36 287.45 106.16 289.38C82.96 291.31 43.32 294.19 43.32 294.19Z" fill="#605D82"/>
<path d="M108.09 167.54C108.09 167.54 125.49 187.84 127.42 194.61C129.35 201.38 150.66 218.75 150.66 218.75C150.66 218.75 135.19 230.35 138.09 236.15C140.99 241.95 117.79 216.82 117.79 216.82L90.66 177.21L108.09 167.54Z" fill="#6C63FF"/>
<path opacity="0.1" d="M108.09 167.54C108.09 167.54 125.49 187.84 127.42 194.61C129.35 201.38 150.66 218.75 150.66 218.75C150.66 218.75 135.19 230.35 138.09 236.15C140.99 241.95 117.79 216.82 117.79 216.82L90.66 177.21L108.09 167.54Z" fill="black"/>
<path d="M119.66 144.34C119.66 144.34 110.96 172.34 110.96 183.01C110.96 193.68 74.22 180.11 75.19 174.31C76.16 168.51 96.46 147.24 97.43 138.54C98.4 129.84 119.66 144.34 119.66 144.34Z" fill="#A0616A"/>
<path opacity="0.1" d="M90.66 163.67C90.66 163.67 56.82 154.97 51.99 204.28C47.16 253.59 55.85 259.38 41.35 289.35C26.85 319.32 139.96 293.22 139.96 293.22C139.96 293.22 134.16 286.45 115.79 289.35L107.09 263.25C107.09 263.25 104.19 251.65 120.63 251.65C137.07 251.65 129.33 217.81 129.33 217.81C129.33 217.81 120.63 188.81 115.79 185.91C110.95 183.01 102.29 165.61 90.66 163.67Z" fill="black"/>
<path d="M90.66 161.75C90.66 161.75 56.82 153.05 51.99 202.35C47.16 251.65 55.85 257.46 41.35 287.43C26.85 317.4 139.96 291.3 139.96 291.3C139.96 291.3 134.16 284.53 115.79 287.43L107.09 261.33C107.09 261.33 104.22 249.75 120.66 249.75C137.1 249.75 129.36 215.91 129.36 215.91C129.36 215.91 120.66 186.91 115.82 184.01C110.98 181.11 102.29 163.67 90.66 161.75Z" fill="#6C63FF"/>
<path d="M110.99 161.74C128.608 161.74 142.89 147.458 142.89 129.84C142.89 112.222 128.608 97.94 110.99 97.94C93.3721 97.94 79.09 112.222 79.09 129.84C79.09 147.458 93.3721 161.74 110.99 161.74Z" fill="#A0616A"/>
<path d="M104.83 293.18L185 341.1L259.59 271.6L170.67 240.63L106.68 284.19L104.83 293.18Z" fill="#DADAE5"/>
<path d="M199.44 159.04L174.49 233.24L257.21 257.03L292.52 156.69L199.44 159.04Z" fill="#DADAE5"/>
<path opacity="0.03" d="M192.78 153.56L199.55 159.75L292.63 157.4L294.77 151.32L192.78 153.56Z" fill="black"/>
<path opacity="0.03" d="M168.21 228.97L192.78 153.56L199.55 159.75L175.23 232.09L168.21 228.97Z" fill="black"/>
<path d="M192.67 152.85L199.44 159.04L292.52 156.69L294.66 150.61L192.67 152.85Z" fill="#EFF0F4"/>
<path d="M168.1 228.27L192.67 152.85L199.44 159.04L175.12 231.38L168.1 228.27Z" fill="#EFF0F4"/>
<path opacity="0.03" d="M192.67 152.85L203.02 162.53L296.11 160.18L294.66 150.61L192.67 152.85Z" fill="black"/>
<path opacity="0.03" d="M168.1 228.27L192.67 152.85L203.02 162.53L178.7 234.87L168.1 228.27Z" fill="black"/>
<path opacity="0.03" d="M168.26 229.33L170.52 243.68L259.99 274.74L257.38 258.09L168.26 229.33Z" fill="black"/>
<path opacity="0.03" d="M102.12 276.49L168.26 229.33L171.15 243.67L106.18 291.99L102.12 276.49Z" fill="black"/>
<path d="M168.1 228.27L170.04 240.64L259.51 271.7L257.21 257.03L168.1 228.27Z" fill="#EFF0F4"/>
<path d="M101.95 275.42L168.1 228.27L170.67 240.63L105.7 288.95L101.95 275.42Z" fill="#EFF0F4"/>
<path opacity="0.03" d="M168.1 228.27L170.04 240.64L259.51 271.7L257.21 257.03L168.1 228.27Z" fill="black"/>
<path opacity="0.03" d="M101.95 275.42L168.1 228.27L170.67 240.63L105.7 288.95L101.95 275.42Z" fill="black"/>
<path d="M101.95 275.42L104.94 293.25L184.89 341.02L182.92 322.67L101.95 275.42Z" fill="#CCCAD6"/>
<path d="M138.38 272.6C138.38 272.6 136.99 275.25 139.11 276.47C140.11 277.05 147.34 278.47 154.6 279.83C158.16 280.49 161.73 281.13 164.6 281.63C168.1 282.25 170.52 282.63 170.52 282.63H172.36L183.48 282.84L193.94 283.04L198.37 282.13L195.82 264.75L182.58 250.2L179.81 252.54L179.34 252.94L172.06 256.48L151.52 266.48L142.28 270.98L141.2 271.51L138.38 272.6Z" fill="#FFE09C"/>
<path d="M205.85 280.99C205.85 280.99 203.36 261.99 196.18 255.33C196.18 255.33 190.28 249.33 186.65 247.69C186.65 247.69 183.56 245.5 180.52 252.1C180.52 252.1 192.19 259.24 194.71 270.35L197.22 281.46L205.85 280.99Z" fill="#E7C4C3"/>
<path d="M191.815 274.208C193.302 271.881 192.281 268.573 189.535 266.818C186.789 265.064 183.358 265.529 181.871 267.856C180.385 270.183 181.406 273.492 184.152 275.246C186.898 277 190.329 276.535 191.815 274.208Z" fill="#FF7F8E"/>
<path d="M173.574 270.082C175.061 267.755 174.04 264.446 171.294 262.692C168.548 260.938 165.116 261.402 163.63 263.73C162.143 266.057 163.164 269.365 165.91 271.119C168.656 272.874 172.088 272.409 173.574 270.082Z" fill="#FF7F8E"/>
<path d="M172.06 256.49C172.138 257.474 172.451 258.424 172.973 259.261C173.495 260.098 174.211 260.798 175.06 261.3C177.8 263.05 181.23 262.59 182.71 260.3C184.19 258.01 183.18 254.67 180.43 252.92C180.242 252.8 180.049 252.69 179.85 252.59L179.38 252.99L172.06 256.49Z" fill="#FF7F8E"/>
<path d="M172.86 278.98C172.52 279.528 172.298 280.142 172.21 280.781C172.123 281.42 172.17 282.07 172.35 282.69L183.47 282.9C183.427 281.882 183.13 280.892 182.606 280.018C182.082 279.145 181.348 278.417 180.47 277.9C177.77 276.19 174.34 276.66 172.86 278.98Z" fill="#FF7F8E"/>
<path d="M154.74 275.15C154.317 275.853 154.082 276.652 154.058 277.472C154.033 278.291 154.22 279.103 154.6 279.83C158.16 280.49 161.73 281.13 164.6 281.63L164.69 281.5C166.17 279.18 165.15 275.87 162.41 274.12C159.67 272.37 156.23 272.83 154.74 275.15Z" fill="#FF7F8E"/>
<path d="M142.28 271C142.708 271.477 143.199 271.895 143.74 272.24C146.48 273.99 149.91 273.53 151.39 271.24C151.816 270.535 152.052 269.731 152.074 268.907C152.097 268.083 151.906 267.268 151.52 266.54L142.28 271Z" fill="#FF7F8E"/>
<path d="M190.1 277.98L189.1 279.57C188.064 278.488 186.805 277.646 185.41 277.1L185.12 277.03C183.25 276.69 186.12 275.44 186.12 275.44C186.12 275.44 189.71 276.93 190.1 277.98Z" fill="#94CC79"/>
<path d="M181.41 266.5L180.41 268.1C179.375 267.014 178.116 266.168 176.72 265.62L176.43 265.55C174.57 265.22 177.43 263.96 177.43 263.96C177.43 263.96 181.02 265.45 181.41 266.5Z" fill="#94CC79"/>
<path d="M175.99 270.75L174.99 272.34C173.954 271.258 172.695 270.416 171.3 269.87L171.01 269.8C169.14 269.46 172.01 268.21 172.01 268.21C172.01 268.21 175.59 269.68 175.99 270.75Z" fill="#94CC79"/>
<path d="M164.42 274.75L163.42 276.35C162.385 275.264 161.126 274.418 159.73 273.87L159.44 273.8C157.57 273.47 160.44 272.21 160.44 272.21C160.44 272.21 164.02 273.66 164.42 274.75Z" fill="#94CC79"/>
<path d="M147.66 274.15L146.66 275.75C145.621 274.665 144.359 273.819 142.96 273.27L142.67 273.2C140.81 272.87 143.67 271.61 143.67 271.61C143.67 271.61 147.25 273.09 147.66 274.15Z" fill="#94CC79"/>
<path d="M161.41 268.15L160.41 269.74C159.375 268.654 158.116 267.808 156.72 267.26L156.43 267.19C154.56 266.86 157.43 265.6 157.43 265.6C157.43 265.6 161.01 267.09 161.41 268.15Z" fill="#94CC79"/>
<path d="M202.66 285.92C202.66 285.92 209.09 285.22 205.81 280.99C202.326 280.14 198.683 280.202 195.23 281.17C195.23 281.17 167.86 282.39 164.31 280.43C164.31 280.43 139.51 276.43 138.51 275.17C138.51 275.17 136.51 275.61 142.59 278.31C148.67 281.01 168.12 283.83 168.12 283.83L188.75 285.47L196.17 284.55L202.66 285.92Z" fill="#E7C4C3"/>
<path opacity="0.2" d="M202.66 285.92C202.66 285.92 209.09 285.22 205.81 280.99C202.326 280.14 198.683 280.202 195.23 281.17C195.23 281.17 167.86 282.39 164.31 280.43C164.31 280.43 139.51 276.43 138.51 275.17C138.51 275.17 136.51 275.61 142.59 278.31C148.67 281.01 168.12 283.83 168.12 283.83L188.75 285.47L196.17 284.55L202.66 285.92Z" fill="white"/>
<path d="M183.16 276.11C182.86 277.045 182.787 278.039 182.949 279.008C183.111 279.977 183.502 280.893 184.09 281.68C185.97 284.33 189.32 285.19 191.58 283.6C193.84 282.01 194.13 278.6 192.24 275.9C192.11 275.72 191.97 275.54 191.83 275.37L191.23 275.57L183.16 276.11Z" fill="#FF7F8E"/>
<path d="M182.92 322.67L257.21 257.03L259.49 271.52L184.89 341.02L182.92 322.67Z" fill="#CCCAD6"/>
<path d="M266.85 260.77L257.21 257.03L294.66 150.61L301.8 155.65L266.85 260.77Z" fill="#CCCAD6"/>
<g opacity="0.1">
<path d="M206.56 415.88C206.635 413.306 207.007 410.749 207.67 408.26L207.18 408.43C206.7 410.883 206.492 413.381 206.56 415.88Z" fill="white"/>
<path d="M211.53 451.75C203.75 452.21 179.63 441.11 174.8 435.31C174.162 434.528 173.772 433.574 173.68 432.57C173.537 433.385 173.563 434.221 173.756 435.026C173.948 435.831 174.304 436.588 174.8 437.25C179.63 443.05 203.75 454.14 211.53 453.68C219.75 453.2 247.3 454.68 248.27 442.08C248.337 441.741 248.291 441.39 248.14 441.08C245.92 452.66 219.54 451.3 211.53 451.75Z" fill="white"/>
</g>
<path d="M239.78 217.13C239.78 217.13 241.5 215.13 239.94 213.69C239.19 212.99 233.31 210.31 227.39 207.69C224.48 206.41 221.55 205.15 219.22 204.15L214.37 202.08L212.8 201.68L203.35 199.27L194.46 197L190.46 196.89L189.12 212.28L197.51 227.36L200.33 225.92L200.82 225.67L207.75 224.11L227.33 219.75L236.12 217.75L237.12 217.52L239.78 217.13Z" fill="#FFE09C"/>
<path d="M183.86 196.42C183.86 196.42 182.17 213.14 186.96 220.27C186.96 220.27 190.8 226.55 193.56 228.71C193.56 228.71 195.76 231.19 199.69 226.17C199.69 226.17 191.15 217.73 191.24 207.74L191.32 197.74L183.86 196.42Z" fill="#E7C4C3"/>
<path d="M201.691 212.528C203.426 210.842 203.219 207.815 201.228 205.768C199.238 203.72 196.219 203.427 194.484 205.114C192.75 206.8 192.957 209.826 194.947 211.874C196.937 213.921 199.957 214.214 201.691 212.528Z" fill="#FF7F8E"/>
<path d="M216.442 219.705C218.177 218.019 217.97 214.992 215.979 212.945C213.989 210.897 210.969 210.604 209.235 212.291C207.5 213.977 207.708 217.003 209.698 219.051C211.688 221.098 214.708 221.391 216.442 219.705Z" fill="#FF7F8E"/>
<path d="M207.79 224.12C207.923 223.269 207.851 222.399 207.579 221.581C207.308 220.764 206.845 220.023 206.23 219.42C204.23 217.42 201.23 217.08 199.48 218.77C197.73 220.46 197.96 223.48 199.95 225.53C200.083 225.671 200.223 225.805 200.37 225.93L200.86 225.68L207.79 224.12Z" fill="#FF7F8E"/>
<path d="M211.66 204.75C212.061 204.35 212.373 203.87 212.575 203.341C212.776 202.811 212.863 202.245 212.83 201.68L203.38 199.27C203.217 200.139 203.271 201.034 203.538 201.877C203.805 202.72 204.276 203.484 204.91 204.1C206.87 206.16 209.89 206.45 211.66 204.75Z" fill="#FF7F8E"/>
<path d="M226.32 211.67C226.826 211.151 227.191 210.51 227.378 209.81C227.565 209.109 227.569 208.373 227.39 207.67C224.48 206.39 221.55 205.13 219.22 204.13L219.11 204.22C217.38 205.91 217.59 208.94 219.58 210.99C221.57 213.04 224.59 213.36 226.32 211.67Z" fill="#FF7F8E"/>
<path d="M236.12 217.75C235.855 217.253 235.518 216.798 235.12 216.4C233.12 214.35 230.12 214.06 228.38 215.75C227.871 216.267 227.506 216.908 227.32 217.61C227.134 218.311 227.134 219.049 227.32 219.75L236.12 217.75Z" fill="#FF7F8E"/>
<path d="M196.66 202.15L197.85 201C198.521 202.131 199.428 203.103 200.51 203.85L200.74 203.97C202.27 204.63 199.55 205.12 199.55 205.12C199.55 205.12 196.83 203.13 196.66 202.15Z" fill="#94CC79"/>
<path d="M201.82 213.75L203 212.59C203.669 213.725 204.577 214.7 205.66 215.45L205.89 215.56C207.42 216.23 204.7 216.72 204.7 216.72C204.7 216.72 201.94 214.67 201.82 213.75Z" fill="#94CC79"/>
<path d="M207.29 211.18L208.48 210.02C209.149 211.155 210.057 212.13 211.14 212.88L211.37 212.99C212.9 213.66 210.18 214.15 210.18 214.15C210.18 214.15 207.42 212.16 207.29 211.18Z" fill="#94CC79"/>
<path d="M217.97 210.1L219.16 208.94C219.828 210.072 220.732 211.048 221.81 211.8L222.05 211.92C223.57 212.58 220.86 213.07 220.86 213.07C220.86 213.07 218.1 211.08 217.97 210.1Z" fill="#94CC79"/>
<path d="M232.18 213.96L233.37 212.8C234.034 213.936 234.938 214.912 236.02 215.66L236.26 215.77C237.78 216.44 235.07 216.93 235.07 216.93C235.07 216.93 232.31 214.93 232.18 213.96Z" fill="#94CC79"/>
<path d="M219.22 216.31L220.41 215.16C221.081 216.291 221.988 217.263 223.07 218.01C223.141 218.06 223.218 218.1 223.3 218.13C224.83 218.79 222.11 219.29 222.11 219.29C222.11 219.29 219.35 217.29 219.22 216.31Z" fill="#94CC79"/>
<path d="M187.54 192.84C187.54 192.84 181.91 192.15 183.86 196.42C186.663 197.851 189.785 198.54 192.93 198.42C192.93 198.42 216.54 202.88 219.18 205.26C219.18 205.26 239.55 213.64 240.18 214.94C240.18 214.94 241.97 214.94 237.33 211.43C232.69 207.92 216.66 201.57 216.66 201.57L199.38 196.02L192.86 195.31L187.54 192.84Z" fill="#E7C4C3"/>
<path opacity="0.2" d="M187.54 192.84C187.54 192.84 181.91 192.15 183.86 196.42C186.663 197.851 189.785 198.54 192.93 198.42C192.93 198.42 216.54 202.88 219.18 205.26C219.18 205.26 239.55 213.64 240.18 214.94C240.18 214.94 241.97 214.94 237.33 211.43C232.69 207.92 216.66 201.57 216.66 201.57L199.38 196.02L192.86 195.31L187.54 192.84Z" fill="white"/>
<path d="M158.75 216.13C161.622 214.623 164.221 212.645 166.44 210.28C167.44 209.1 168.28 207.77 169.31 206.61C171.906 203.836 175.281 201.912 178.99 201.09C182.67 200.282 186.433 199.916 190.2 200C192.721 199.839 195.25 200.145 197.66 200.9C198.866 201.294 199.951 201.988 200.816 202.917C201.68 203.846 202.294 204.979 202.6 206.21C203.15 209.21 201.19 212.12 198.84 214.05C196.652 215.835 194.077 217.085 191.32 217.7C189.073 218.089 186.806 218.352 184.53 218.49C171.15 219.89 159.21 227.17 147.53 233.8C137.23 239.63 131.39 239.36 120.7 244.42C120.28 241.22 115.44 243.7 115.51 240.47C115.57 238.06 115.69 234.38 117.97 232.96C120.62 231.31 124.97 230.96 127.97 229.96C134.862 227.7 141.594 224.977 148.12 221.81C151.727 220.043 155.27 218.15 158.75 216.13Z" fill="#A0616A"/>
<path opacity="0.1" d="M70.39 207.18L121.66 253.58C121.66 253.58 131.33 234.25 134.23 234.25C137.13 234.25 99.43 177.25 99.43 177.25C99.43 177.25 89.76 165.65 83.96 171.45C78.16 177.25 60.72 173.34 70.39 207.18Z" fill="black"/>
<path d="M69.42 205.25L120.66 251.65C120.66 251.65 130.33 232.31 133.23 232.31C136.13 232.31 98.42 175.31 98.42 175.31C98.42 175.31 88.75 163.7 82.95 169.5C77.15 175.3 59.75 171.41 69.42 205.25Z" fill="#6C63FF"/>
<path d="M153.78 123.46C154.899 122.215 155.808 120.797 156.47 119.26C160.89 109.26 153.88 96.7 141.91 93.26C135.91 91.51 129.19 91.86 123.2 90C118.38 88.51 114.32 85.69 109.9 83.49C101.594 79.3976 92.4038 77.4256 83.15 77.75C74.1 78.07 64.26 81.25 60.55 88.24C55.13 98.42 65.1 111.24 59.06 121.15C54.62 128.43 43.85 130.58 34.92 133.74C25.6748 136.937 17.2578 142.154 10.28 149.01C3.28001 156.01 -1.71997 165.61 1.80003 174.29C3.85003 179.38 8.48001 183.36 12.16 187.75C18.2996 194.953 21.8911 203.981 22.3774 213.433C22.8638 222.886 20.2179 232.235 14.85 240.03C13.13 242.5 11.12 244.91 10.41 247.71C8.71001 254.39 15.57 261.11 23.5 262.41C31.43 263.71 39.66 260.75 45.83 256.38C51.5264 252.453 56.1113 247.121 59.14 240.9C66.47 225.36 61.32 207.9 60.59 191.17C60.5 189.22 60.59 187.1 61.96 185.57C64.08 183.28 68.08 183.34 71.5 183.04C80.35 182.26 88.5 177.3 92.25 170.46C99.42 157.3 91.07 138.91 103.6 129.01C119.37 116.55 142.07 136.25 153.78 123.46Z" fill="#3F3D56"/>
<path opacity="0.1" d="M141.91 93.22H141.81C146.49 98.64 148.25 105.96 145.47 112.28C144.808 113.817 143.899 115.235 142.78 116.48C131.07 129.27 108.37 109.57 92.6 122.03C80.07 131.93 88.42 150.32 81.25 163.48C77.53 170.32 69.35 175.28 60.5 176.06C57.08 176.36 53.08 176.3 50.96 178.59C49.55 180.12 49.5 182.24 49.59 184.19C50.32 200.92 55.47 218.38 48.14 233.92C45.1112 240.141 40.5264 245.473 34.83 249.4C28.66 253.75 20.44 256.75 12.5 255.45L11.95 255.33C13.3059 257.224 15.0256 258.83 17.0087 260.052C18.9917 261.274 21.1984 262.09 23.5 262.45C31.44 263.74 39.61 260.74 45.83 256.38C51.5264 252.453 56.1112 247.121 59.14 240.9C66.47 225.36 61.32 207.9 60.59 191.17C60.5 189.22 60.59 187.1 61.96 185.57C64.08 183.28 68.08 183.34 71.5 183.04C80.35 182.26 88.5 177.3 92.25 170.46C99.42 157.3 91.07 138.91 103.6 129.01C119.37 116.55 142.07 136.25 153.78 123.46C154.899 122.215 155.808 120.797 156.47 119.26C160.89 109.23 153.88 96.75 141.91 93.22Z" fill="black"/>
</svg>
